<svg width="178" height="178" viewBox="0 0 178 178" fill="none" xmlns="http://www.w3.org/2000/svg">
<path d="M176.592 88.5469C176.592 105.961 171.428 122.983 161.753 137.462C152.078 151.941 138.328 163.226 122.239 169.89C106.151 176.554 88.4478 178.297 71.3686 174.9C54.2894 171.503 38.6012 163.117 26.2878 150.804C13.9744 138.49 5.58896 122.802 2.19176 105.723C-1.20545 88.6434 0.538205 70.9403 7.20222 54.8521C13.8662 38.7638 25.1513 25.013 39.6304 15.3384C54.1095 5.66379 71.1322 0.5 88.5461 0.5C100.109 0.499889 111.558 2.77722 122.24 7.20196C132.922 11.6267 142.629 18.1122 150.805 26.2881C158.98 34.4641 165.466 44.1703 169.89 54.8527C174.315 65.5351 176.592 76.9844 176.592 88.5469Z" fill="white" stroke="black"/>
<path d="M142.493 71.0016V28.052H152.524C164.079 40.2264 171.882 55.4686 175.004 71.9547L142.493 71.0016Z" fill="#1139BC" stroke="black"/>
<path d="M1.35771 100.882L49.4675 111.651L40.6004 150.431L19.2339 142.847C9.67581 130.678 3.50999 116.199 1.35771 100.882Z" fill="#FFD143" stroke="black"/>
<path d="M86.1373 68.3119L86.1372 68.3122C86.0162 69.5258 87.1475 70.794 88.904 70.9691C90.6575 71.1423 92.0162 70.1177 92.1367 68.9052C92.1367 68.9051 92.1367 68.9051 92.1367 68.905L94.6183 43.8509L94.6183 43.8508C94.7388 42.6371 93.6063 41.3669 91.8533 41.1937L86.1373 68.3119ZM86.1373 68.3119L88.6197 43.2576L88.6197 43.2575M86.1373 68.3119L88.6197 43.2575M88.6197 43.2575C88.7395 42.0452 90.0961 41.0205 91.8532 41.1937L88.6197 43.2575Z" fill="#F6B968" stroke="black"/>
<path d="M86.2394 68.3743L86.2403 68.3588L86.2403 68.3433L86.2293 42.2733C86.2354 42.2625 86.2477 42.2436 86.2706 42.2166C86.326 42.1509 86.4179 42.0683 86.5534 41.9714C86.8243 41.7778 87.2022 41.5747 87.6263 41.3721C87.9967 41.1952 88.3835 41.0273 88.7411 40.8722C88.7899 40.851 88.8381 40.8301 88.8857 40.8094C88.9351 40.7879 88.9844 40.7665 89.0331 40.7451L86.7512 68.6579C86.6662 68.9735 86.5925 69.292 86.5301 69.6127C86.5011 69.5623 86.474 69.5107 86.4489 69.4579C86.2884 69.1202 86.2163 68.7474 86.2394 68.3743Z" fill="#EEAA59" stroke="black"/>
<path d="M82.3957 74.787L82.3957 74.787C84.1563 74.8891 85.4734 73.811 85.544 72.5943L85.5442 72.5917L87.161 47.0822C87.161 47.0818 87.161 47.0814 87.1611 47.0809C87.1945 46.4967 86.9192 46.0017 86.3848 45.6163C85.8391 45.2226 85.0424 44.9643 84.142 44.9118L82.3957 74.787ZM82.3957 74.787C80.6347 74.685 79.4533 73.4598 79.5239 72.2423M82.3957 74.787L79.5239 72.2423M79.5239 72.2423C79.5239 72.2422 79.5239 72.2422 79.5239 72.2421M79.5239 72.2423L79.5239 72.2421M79.5239 72.2421L80.9936 47.1041C80.9936 47.1041 80.9936 47.1039 80.9936 47.1038C81.0658 45.8858 82.3809 44.8098 84.1418 44.9118L79.5239 72.2421Z" fill="#F6B968" stroke="black"/>
<path d="M79.5314 72.1344L79.5316 72.1306L80.9409 46.3816C80.9453 46.3515 80.9609 46.311 81.0469 46.2488C81.1542 46.1711 81.3237 46.097 81.5657 46.0195C81.7128 45.9724 81.8505 45.9343 81.9975 45.8937C82.0978 45.866 82.2024 45.8371 82.3172 45.8033L79.6294 72.9367C79.548 72.6784 79.5144 72.4065 79.5314 72.1344Z" fill="#EEAA59" stroke="black"/>
<path d="M72.4484 72.8266L72.4484 72.8261L73.9207 47.6887C73.9207 47.6886 73.9207 47.6886 73.9207 47.6885C73.9929 46.4704 75.3098 45.3935 77.0688 45.4963L77.0689 45.4963C78.8312 45.5992 80.0132 46.8225 79.9392 48.0425L79.9392 48.0436L78.4694 73.1787L78.4694 73.1789C78.3987 74.3979 77.0811 75.4754 75.3187 75.3725C73.5578 75.2696 72.3758 74.0449 72.4484 72.8266Z" fill="#F6B968" stroke="black"/>
<path d="M154.988 66.7775C155.064 66.4585 155.229 66.1679 155.464 65.9393L155.495 65.91C155.686 65.7341 155.914 65.6045 156.163 65.5315L156.5 65.4326L156.521 65.0816L156.646 63.0043L156.646 62.996L156.646 62.9877C156.647 62.9508 156.656 62.9145 156.671 62.881C156.686 62.8474 156.708 62.8173 156.735 62.7923C156.763 62.7673 156.794 62.7481 156.829 62.7357C156.864 62.7233 156.901 62.718 156.938 62.7202C156.974 62.7223 157.01 62.7319 157.044 62.7482L157.264 62.3027L157.044 62.7482C157.077 62.7646 157.106 62.7874 157.13 62.8153C157.154 62.8432 157.172 62.8757 157.184 62.9108L157.654 62.7598L157.184 62.9108C157.195 62.946 157.199 62.983 157.196 63.0197L157.195 63.0272L157.195 63.0347L157.07 65.1061L157.049 65.4561L157.371 65.5951C157.588 65.6887 157.783 65.8268 157.943 66.0003L157.944 66.0012C158.177 66.2525 158.331 66.5673 158.385 66.9058C158.439 67.2443 158.392 67.5913 158.249 67.9029C158.106 68.2145 157.874 68.4766 157.582 68.6562C157.29 68.8358 156.951 68.9248 156.608 68.9118C156.266 68.8989 155.935 68.7847 155.657 68.5835C155.379 68.3824 155.168 68.1035 155.049 67.782C154.93 67.4605 154.908 67.111 154.988 66.7775Z" fill="#E2E2E2" stroke="black"/>
<path d="M162.779 65.4321L163.118 65.3334L163.138 64.9813L163.259 62.9102C163.267 62.8412 163.3 62.7775 163.353 62.732C163.407 62.6853 163.478 62.6616 163.549 62.6658C163.621 62.67 163.688 62.7018 163.736 62.7546C163.783 62.8059 163.809 62.8731 163.808 62.9426L163.687 65.0062L163.667 65.355L163.987 65.4941C164.204 65.5883 164.399 65.7264 164.56 65.8997C164.793 66.1509 164.946 66.4655 164.999 66.8036C165.053 67.1418 165.006 67.4884 164.863 67.7996C164.72 68.1108 164.488 68.3727 164.196 68.5521C163.905 68.7315 163.566 68.8204 163.224 68.8076C162.882 68.7948 162.551 68.6808 162.274 68.4801C161.996 68.2793 161.784 68.0008 161.665 67.6798C161.546 67.3587 161.524 67.0095 161.604 66.6763C161.682 66.3437 161.858 66.042 162.108 65.809C162.3 65.6338 162.53 65.5048 162.779 65.4321Z" fill="#E2E2E2" stroke="black"/>
<path d="M169.485 65.3011L169.824 65.2024L169.844 64.8503L169.966 62.7712L169.966 62.7636L169.967 62.7561C169.968 62.7192 169.976 62.6829 169.991 62.6494C170.007 62.6159 170.029 62.5858 170.056 62.5609L169.718 62.1923L170.056 62.5609C170.083 62.536 170.115 62.5168 170.15 62.5044L169.982 62.0333L170.15 62.5044C170.184 62.4921 170.221 62.4868 170.258 62.489C170.295 62.4912 170.331 62.5007 170.364 62.517C170.397 62.5334 170.426 62.5562 170.45 62.5841C170.474 62.612 170.493 62.6445 170.504 62.6796L170.98 62.5266L170.504 62.6796C170.515 62.7146 170.519 62.7516 170.516 62.7884L170.515 62.7961L170.515 62.8039L170.394 64.8753L170.374 65.2237L170.694 65.3629C170.957 65.4777 171.188 65.6566 171.366 65.8832C171.543 66.1099 171.661 66.3772 171.709 66.661C171.756 66.9447 171.733 67.2359 171.639 67.5081C171.546 67.7803 171.387 68.025 171.175 68.2199L171.174 68.221C171.007 68.3758 170.811 68.4961 170.597 68.5752C170.384 68.6543 170.157 68.6906 169.929 68.682C169.701 68.6733 169.478 68.6199 169.271 68.5248C169.064 68.4297 168.878 68.2948 168.723 68.1278L168.362 68.462L168.723 68.1278C168.568 67.9608 168.448 67.7649 168.369 67.5513C168.29 67.3378 168.253 67.1108 168.262 66.8832C168.271 66.6556 168.324 66.432 168.419 66.225C168.514 66.0185 168.649 65.8326 168.815 65.678C169.007 65.5026 169.236 65.3737 169.485 65.3011Z" fill="#E2E2E2" stroke="black"/>
<path d="M164.289 66.1383L164.29 66.1393C164.522 66.3871 164.674 66.6981 164.729 67.0328L165.222 66.9524L164.729 67.0328C164.784 67.3675 164.737 67.7109 164.597 68.0193C164.456 68.3278 164.227 68.5876 163.938 68.7657C163.649 68.9437 163.314 69.0321 162.976 69.0196C162.637 69.0072 162.309 68.8944 162.034 68.6955C161.76 68.4967 161.55 68.2208 161.432 67.9028C161.315 67.5848 161.294 67.239 161.373 66.9092C161.452 66.5794 161.627 66.2805 161.876 66.0503L161.876 66.0503L161.877 66.0494C162.041 65.8969 162.234 65.7781 162.444 65.7C162.654 65.6219 162.878 65.5859 163.102 65.5942C163.326 65.6024 163.546 65.6547 163.75 65.7481C163.954 65.8414 164.137 65.974 164.289 66.1383Z" fill="white" stroke="black"/>
<path d="M170.941 66.0594C171.173 66.3072 171.326 66.6183 171.38 66.953C171.435 67.2878 171.389 67.6313 171.248 67.9398C171.107 68.2483 170.878 68.5081 170.589 68.6862C170.3 68.8643 169.965 68.9526 169.626 68.94C169.287 68.9275 168.96 68.8145 168.685 68.6155C168.41 68.4165 168.201 68.1405 168.083 67.8223C167.966 67.5041 167.945 67.1582 168.024 66.8284C168.104 66.4986 168.279 66.1998 168.528 65.9698C168.861 65.663 169.301 65.5003 169.753 65.5171C170.205 65.5338 170.632 65.7288 170.941 66.0594Z" fill="white" stroke="black"/>
<path d="M157.693 66.2217L157.694 66.2226C157.924 66.47 158.075 66.78 158.129 67.1135C158.183 67.4469 158.136 67.7888 157.996 68.0958C157.855 68.4029 157.626 68.6613 157.339 68.8385C157.051 69.0156 156.718 69.1036 156.38 69.0911C156.043 69.0787 155.717 68.9665 155.443 68.7686C155.169 68.5708 154.96 68.2963 154.843 67.9797C154.725 67.6631 154.704 67.3188 154.782 66.9902C154.86 66.6616 155.034 66.3636 155.281 66.1337L155.281 66.1337L155.282 66.1329C155.446 65.9799 155.638 65.8608 155.848 65.7824C156.058 65.704 156.282 65.668 156.506 65.6762C156.73 65.6845 156.95 65.7369 157.154 65.8305C157.358 65.9241 157.541 66.0571 157.693 66.2217Z" fill="white" stroke="black"/>
<path d="M95.6899 32.9414L95.6443 32.7875L95.6964 32.9346M95.6899 32.9414L95.5394 33.1009L95.7367 33.2871C95.7596 33.278 95.7802 33.2701 95.7985 33.2634M95.6899 32.9414L95.6964 32.9346M95.6899 32.9414L95.7864 33.2669C95.7904 33.2657 95.7945 33.2645 95.7985 33.2634M95.7985 33.2634C95.8469 33.2497 95.8963 33.2396 95.9461 33.2333L95.8826 32.7373L95.6964 32.9346M95.7985 33.2634C95.8028 33.2618 95.807 33.2604 95.811 33.2589L95.6964 32.9346M70.3676 74.8928C70.3662 74.8828 70.3649 74.8727 70.3636 74.8627L69.8676 74.9253L70.3676 74.9253V74.9253V74.9252V74.9252V74.9251V74.925V74.925V74.9249V74.9248V74.9247V74.9246V74.9244V74.9243V74.9242V74.924V74.9238V74.9237V74.9235V74.9233V74.9231V74.9229V74.9226V74.9224V74.9222V74.9219V74.9216V74.9214V74.9211V74.9208V74.9205V74.9202V74.9199V74.9195V74.9192V74.9189V74.9185V74.9181V74.9178V74.9174V74.917V74.9166V74.9162V74.9158V74.9154V74.9149V74.9145V74.914V74.9136V74.9131V74.9126V74.9121V74.9116V74.9111V74.9106V74.9101V74.9096V74.909V74.9085V74.9079V74.9074V74.9068V74.9062V74.9056V74.905V74.9044V74.9038V74.9032V74.9026V74.9019V74.9013V74.9006V74.9V74.8993V74.8986V74.8979V74.8972V74.8965V74.8958V74.8951V74.8944V74.8937V74.8929V74.8928ZM77.203 74.9253H77.703L77.2069 74.8627C77.2057 74.8727 77.2043 74.8828 77.203 74.8928V74.9253ZM96.1948 46.288C96.1274 46.2925 96.0591 46.2978 95.99 46.3037L95.8561 46.4529L96.2281 46.7869L96.1948 46.288ZM102.525 39.0243L102.199 39.3872L102.554 39.7219L102.897 39.3583L102.525 39.0243Z" fill="#FFCC90" stroke="black"/>
<path d="M71.3143 75.0977H71.3143C71.0641 75.097 70.8157 75.0616 70.5762 74.9929C70.5415 74.2448 70.5052 73.3874 70.5151 72.5952C70.5207 72.1388 70.5417 71.7137 70.5854 71.3509C70.63 70.9799 70.6945 70.7092 70.7699 70.5414L70.7831 70.512L70.7924 70.4811C70.8089 70.4264 70.8426 70.3785 70.8885 70.3444C70.9214 70.3199 70.9594 70.3035 70.9994 70.2963L71.0553 70.2962C71.1241 70.2962 71.1914 70.3169 71.2484 70.3555C71.3054 70.3942 71.3494 70.4491 71.3748 70.5131L71.3867 70.5434L71.4025 70.5718C71.4963 70.7406 71.5869 71.0113 71.666 71.38C71.7436 71.7414 71.8039 72.1655 71.8515 72.6213C71.9333 73.4032 71.9754 74.25 72.0095 74.9925C71.7868 75.0589 71.5556 75.0944 71.3222 75.0977H71.3222H71.3222H71.3222H71.3221H71.3221H71.3221H71.3221H71.322H71.322H71.322H71.322H71.322H71.3219H71.3219H71.3219H71.3219H71.3218H71.3218H71.3218H71.3218H71.3217H71.3217H71.3217H71.3217H71.3216H71.3216H71.3216H71.3216H71.3215H71.3215H71.3215H71.3215H71.3214H71.3214H71.3214H71.3213H71.3213H71.3213H71.3213H71.3212H71.3212H71.3212H71.3212H71.3211H71.3211H71.3211H71.3211H71.321H71.321H71.321H71.3209H71.3209H71.3209H71.3209H71.3208H71.3208H71.3208H71.3207H71.3207H71.3207H71.3207H71.3206H71.3206H71.3206H71.3205H71.3205H71.3205H71.3204H71.3204H71.3204H71.3204H71.3203H71.3203H71.3203H71.3202H71.3202H71.3202H71.3202H71.3201H71.3201H71.3201H71.32H71.32H71.32H71.32H71.3199H71.3199H71.3199H71.3199H71.3198H71.3198H71.3198H71.3197H71.3197H71.3197H71.3197H71.3196H71.3196H71.3196H71.3196H71.3195H71.3195H71.3195H71.3195H71.3194H71.3194H71.3194H71.3194H71.3193H71.3193H71.3193H71.3193H71.3192H71.3192H71.3192H71.3192H71.3191H71.3191H71.3191H71.3191H71.319H71.319H71.319H71.319H71.319H71.3189H71.3189H71.3189H71.3189H71.3188H71.3188H71.3188H71.3188H71.3188H71.3187H71.3187H71.3187H71.3187H71.3186H71.3186H71.3186H71.3186H71.3186H71.3185H71.3185H71.3185H71.3185H71.3185H71.3184H71.3184H71.3184H71.3184H71.3184H71.3183H71.3183H71.3183H71.3183H71.3183H71.3182H71.3182H71.3182H71.3182H71.3182H71.3182H71.3181H71.3181H71.3181H71.3181H71.3181H71.318H71.318H71.318H71.318H71.318H71.318H71.3179H71.3179H71.3179H71.3179H71.3179H71.3178H71.3178H71.3178H71.3178H71.3178H71.3178H71.3177H71.3177H71.3177H71.3177H71.3177H71.3177H71.3176H71.3176H71.3176H71.3176H71.3176H71.3176H71.3176H71.3175H71.3175H71.3175H71.3175H71.3175H71.3175H71.3174H71.3174H71.3174H71.3174H71.3174H71.3174H71.3174H71.3173H71.3173H71.3173H71.3173H71.3173H71.3173H71.3173H71.3172H71.3172H71.3172H71.3172H71.3172H71.3172H71.3172H71.3171H71.3171H71.3171H71.3171H71.3171H71.3171H71.3171H71.3171H71.317H71.317H71.317H71.317H71.317H71.317H71.317H71.317H71.3169H71.3169H71.3169H71.3169H71.3169H71.3169H71.3169H71.3169H71.3168H71.3168H71.3168H71.3168H71.3168H71.3168H71.3168H71.3168H71.3167H71.3167H71.3167H71.3167H71.3167H71.3167H71.3167H71.3167H71.3167H71.3166H71.3166H71.3166H71.3166H71.3166H71.3166H71.3166H71.3166H71.3166H71.3166H71.3165H71.3165H71.3165H71.3165H71.3165H71.3165H71.3165H71.3165H71.3165H71.3164H71.3164H71.3164H71.3164H71.3164H71.3164H71.3164H71.3164H71.3164H71.3164H71.3163H71.3163H71.3163H71.3163H71.3163H71.3163H71.3163H71.3163H71.3163H71.3163H71.3163H71.3162H71.3162H71.3162H71.3162H71.3162H71.3162H71.3162H71.3162H71.3162H71.3162H71.3162H71.3161H71.3161H71.3161H71.3161H71.3161H71.3161H71.3161H71.3161H71.3161H71.3161H71.3161H71.316H71.316H71.316H71.316H71.316H71.316H71.316H71.316H71.316H71.316H71.316H71.316H71.3159H71.3159H71.3159H71.3159H71.3159H71.3159H71.3159H71.3159H71.3159H71.3159H71.3159H71.3159H71.3159H71.3158H71.3158H71.3158H71.3158H71.3158H71.3158H71.3158H71.3158H71.3158H71.3158H71.3158H71.3158H71.3157H71.3157H71.3157H71.3157H71.3157H71.3157H71.3157H71.3157H71.3157H71.3157H71.3157H71.3157H71.3157H71.3156H71.3156H71.3156H71.3156H71.3156H71.3156H71.3156H71.3156H71.3156H71.3156H71.3156H71.3156H71.3156H71.3155H71.3155H71.3155H71.3155H71.3155H71.3155H71.3155H71.3155H71.3155H71.3155H71.3155H71.3155H71.3155H71.3154H71.3154H71.3154H71.3154H71.3154H71.3154H71.3154H71.3154H71.3154H71.3154H71.3154H71.3154H71.3154H71.3153H71.3153H71.3153H71.3153H71.3153H71.3153H71.3153H71.3153H71.3153H71.3153H71.3153H71.3153H71.3152H71.3152H71.3152H71.3152H71.3152H71.3152H71.3152H71.3152H71.3152H71.3152H71.3152H71.3152H71.3151H71.3151H71.3151H71.3151H71.3151H71.3151H71.3151H71.3151H71.3151H71.3151H71.3151H71.3151H71.315H71.315H71.315H71.315H71.315H71.315H71.315H71.315H71.315H71.315H71.315H71.315H71.3149H71.3149H71.3149H71.3149H71.3149H71.3149H71.3149H71.3149H71.3149H71.3149H71.3149H71.3148H71.3148H71.3148H71.3148H71.3148H71.3148H71.3148H71.3148H71.3148H71.3148H71.3148H71.3147H71.3147H71.3147H71.3147H71.3147H71.3147H71.3147H71.3147H71.3147H71.3147H71.3146H71.3146H71.3146H71.3146H71.3146H71.3146H71.3146H71.3146H71.3146H71.3146H71.3145H71.3145H71.3145H71.3145H71.3145H71.3145H71.3145H71.3145H71.3145H71.3144H71.3144H71.3144H71.3144H71.3144H71.3144H71.3144H71.3144H71.3144H71.3143H71.3143H71.3143H71.3143H71.3143H71.3143H71.3143Z" fill="#FFE0BC" stroke="black"/>
<mask id="path-17-inside-1_216_1196" fill="white">
<path d="M70.7382 48.4337C70.703 48.4938 70.6922 48.5651 70.708 48.6328C70.7239 48.7006 70.7652 48.7597 70.8233 48.798L72.2207 49.7511C72.2766 49.7894 72.3454 49.8039 72.4119 49.7914C72.4785 49.779 72.5373 49.7406 72.5756 49.6847C72.6112 49.6248 72.6223 49.5534 72.6064 49.4855C72.5906 49.4176 72.549 49.3584 72.4905 49.3205L71.0982 48.3673C71.0709 48.3474 71.0397 48.3333 71.0067 48.3258C70.9737 48.3183 70.9396 48.3176 70.9063 48.3237C70.873 48.3298 70.8413 48.3427 70.8132 48.3614C70.785 48.3802 70.761 48.4045 70.7425 48.4329L70.7382 48.4337Z"/>
</mask>
<path d="M70.7382 48.4337C70.703 48.4938 70.6922 48.5651 70.708 48.6328C70.7239 48.7006 70.7652 48.7597 70.8233 48.798L72.2207 49.7511C72.2766 49.7894 72.3454 49.8039 72.4119 49.7914C72.4785 49.779 72.5373 49.7406 72.5756 49.6847C72.6112 49.6248 72.6223 49.5534 72.6064 49.4855C72.5906 49.4176 72.549 49.3584 72.4905 49.3205L71.0982 48.3673C71.0709 48.3474 71.0397 48.3333 71.0067 48.3258C70.9737 48.3183 70.9396 48.3176 70.9063 48.3237C70.873 48.3298 70.8413 48.3427 70.8132 48.3614C70.785 48.3802 70.761 48.4045 70.7425 48.4329L70.7382 48.4337Z" fill="#FFE0BC"/>
<path d="M70.7382 48.4337L70.5424 47.4531L70.1026 47.5409L69.8757 47.9278L70.7382 48.4337ZM70.8233 48.798L71.3868 47.9718L71.3797 47.967L71.3724 47.9622L70.8233 48.798ZM72.2207 49.7511L72.7857 48.926L72.7842 48.925L72.2207 49.7511ZM72.4905 49.3205L71.9256 50.1457L71.9359 50.1527L71.9465 50.1595L72.4905 49.3205ZM71.0982 48.3673L70.5096 49.1758L70.5214 49.1843L70.5333 49.1925L71.0982 48.3673ZM70.7425 48.4329L70.9383 49.4135L71.3509 49.3311L71.5805 48.9785L70.7425 48.4329ZM69.8757 47.9278C69.7107 48.209 69.6601 48.5428 69.7343 48.8604L71.6818 48.4053C71.7243 48.5873 71.6953 48.7786 71.6008 48.9397L69.8757 47.9278ZM69.7343 48.8604C69.8085 49.1779 70.0018 49.4547 70.2743 49.6337L71.3724 47.9622C71.5285 48.0647 71.6393 48.2234 71.6818 48.4053L69.7343 48.8604ZM70.2599 49.6241L71.6572 50.5772L72.7842 48.925L71.3868 47.9718L70.2599 49.6241ZM71.6558 50.5762C71.9304 50.7643 72.2685 50.8356 72.5958 50.7744L72.2281 48.8085C72.4223 48.7721 72.6228 48.8145 72.7857 48.926L71.6558 50.5762ZM72.5958 50.7744C72.9231 50.7131 73.2126 50.5244 73.4006 50.2498L71.7506 49.1196C71.8621 48.9568 72.0338 48.8448 72.2281 48.8085L72.5958 50.7744ZM73.4351 50.1958C73.6029 49.9138 73.6549 49.5776 73.5802 49.258L71.6327 49.713C71.5897 49.5291 71.6196 49.3358 71.7161 49.1736L73.4351 50.1958ZM73.5802 49.258C73.5055 48.9384 73.31 48.6601 73.0346 48.4815L71.9465 50.1595C71.788 50.0568 71.6756 49.8968 71.6327 49.713L73.5802 49.258ZM73.0554 48.4953L71.6631 47.5422L70.5333 49.1925L71.9256 50.1457L73.0554 48.4953ZM71.6868 47.5589C71.5497 47.4591 71.3937 47.3883 71.2285 47.3507L70.785 49.3009C70.6857 49.2783 70.592 49.2358 70.5096 49.1758L71.6868 47.5589ZM71.2285 47.3507C71.0631 47.3131 70.8918 47.3095 70.7251 47.3403L71.0874 49.3072C70.9873 49.3256 70.8844 49.3235 70.785 49.3009L71.2285 47.3507ZM70.7251 47.3403C70.5584 47.371 70.3997 47.4353 70.2585 47.5293L71.3678 49.1935C71.283 49.2501 71.1876 49.2887 71.0874 49.3072L70.7251 47.3403ZM70.2585 47.5293C70.1174 47.6234 69.997 47.7452 69.9045 47.8872L71.5805 48.9785C71.5249 49.0639 71.4526 49.137 71.3678 49.1935L70.2585 47.5293ZM70.5467 47.4522L70.5424 47.4531L70.9341 49.4144L70.9383 49.4135L70.5467 47.4522Z" fill="black" mask="url(#path-17-inside-1_216_1196)"/>
<path d="M71.9316 50.2342L71.9315 50.2341C71.9316 50.2342 71.9316 50.2342 71.9316 50.2342ZM71.9316 50.2342C71.9322 50.2346 71.9328 50.235 71.9334 50.2354L71.9316 50.2342Z" fill="#FFE0BC" stroke="black"/>
<path d="M116.473 99.1305L44.359 86.0642L50.2149 53.7451L122.329 66.8113L116.473 99.1305Z" fill="#C1E4EA" stroke="black"/>
<path d="M49.8454 82.3483L49.7563 82.8403L50.2482 82.9294L112.056 94.1281L112.548 94.2172L112.637 93.7253L116.842 70.5262L116.931 70.0342L116.439 69.9451L54.6289 58.7456L54.1369 58.6564L54.0478 59.1484L49.8454 82.3483ZM118.769 68.7609L113.823 96.0557L47.9161 84.1153L52.8618 56.8197L118.769 68.7609Z" fill="#2A7B6D" stroke="black"/>
<path d="M66.0686 73.3074C65.9326 74.0545 65.5783 74.7444 65.0503 75.2901C64.5223 75.8358 63.8444 76.2127 63.1022 76.3732C62.3601 76.5338 61.587 76.4707 60.8807 76.1919C60.1744 75.9132 59.5666 75.4313 59.1341 74.8072C58.7016 74.1831 58.4638 73.4448 58.4508 72.6856C58.4377 71.9264 58.6501 71.1804 59.0609 70.5418C59.4718 69.9033 60.0627 69.4009 60.7591 69.0981C61.4554 68.7953 62.2259 68.7057 62.9731 68.8407C63.4698 68.9304 63.9439 69.1172 64.3684 69.3903C64.7928 69.6634 65.1593 70.0175 65.4468 70.4324C65.7343 70.8472 65.9372 71.3147 66.0439 71.808C66.1506 72.3013 66.159 72.8108 66.0686 73.3074Z" fill="#2A7B6D" stroke="black"/>
<path d="M108.182 80.9383C108.046 81.6851 107.691 82.3749 107.163 82.9204C106.635 83.4659 105.957 83.8426 105.215 84.003C104.473 84.1634 103.7 84.1002 102.994 83.8215C102.288 83.5428 101.68 83.061 101.248 82.4371C100.815 81.8131 100.577 81.075 100.564 80.3159C100.551 79.5568 100.763 78.8109 101.174 78.1723C101.585 77.5338 102.175 77.0313 102.871 76.7283C103.567 76.4253 104.338 76.3354 105.085 76.47C105.582 76.5596 106.056 76.7463 106.481 77.0194C106.906 77.2925 107.272 77.6467 107.56 78.0618C107.848 78.4768 108.051 78.9445 108.158 79.4381C108.264 79.9317 108.272 80.4415 108.182 80.9383Z" fill="#2A7B6D" stroke="black"/>
<path d="M92.825 78.1543C92.4856 80.0294 91.5979 81.7617 90.274 83.1322C88.9501 84.5028 87.2496 85.45 85.3874 85.8541C83.5252 86.2582 81.5851 86.1011 79.8122 85.4025C78.0393 84.704 76.5134 83.4955 75.4273 81.9298C74.3413 80.364 73.7439 78.5114 73.7107 76.6062C73.6775 74.701 74.21 72.8287 75.2408 71.2261C76.2717 69.6235 77.7546 68.3625 79.502 67.6027C81.2495 66.8428 83.183 66.6182 85.0582 66.9572C86.3034 67.1823 87.4921 67.6505 88.5564 68.3351C89.6207 69.0197 90.5397 69.9072 91.2609 70.9469C91.9821 71.9867 92.4915 73.1584 92.7598 74.3951C93.0282 75.6317 93.0503 76.9091 92.825 78.1543Z" fill="#2A7B6D" stroke="black"/>
<path d="M140.167 33.2605C140.736 33.2687 141.183 33.2754 141.492 33.28V53.6033H121.803H121.647L121.519 53.692L121.803 54.1033C121.519 53.692 121.519 53.692 121.519 53.6921L121.519 53.6923L121.517 53.6931L121.513 53.6963L121.495 53.7089L121.423 53.7583L121.146 53.9502C120.905 54.1177 120.553 54.3621 120.111 54.6699C119.228 55.2856 117.984 56.155 116.543 57.1701C113.662 59.1999 109.989 61.8141 106.832 64.1475L106.832 64.1475C105.604 65.055 104.341 66.5353 103.103 68.1639C102.351 69.1516 101.588 70.2227 100.838 71.2756C100.354 71.9563 99.8741 72.6293 99.4067 73.2673C98.1984 74.9169 97.0616 76.346 96.0339 77.2305C95.5199 77.6728 95.0674 77.9484 94.6782 78.0632C94.3096 78.172 94.005 78.1367 93.7215 77.9562L93.7207 77.9556C93.5003 77.816 93.2576 77.6867 93.0278 77.5644C92.9919 77.5453 92.9563 77.5263 92.9212 77.5076C92.6528 77.364 92.398 77.2231 92.161 77.0597C91.6969 76.7398 91.3197 76.3468 91.1242 75.7311C90.924 75.1009 90.8938 74.174 91.2651 72.7529C91.6362 71.3331 92.3983 69.4574 93.7364 66.9549C94.948 64.6919 96.0599 62.9677 97.0581 61.5052C97.3851 61.0261 97.7029 60.5709 98.0094 60.132C98.6314 59.2411 99.2066 58.4173 99.7165 57.597C101.016 55.508 101.831 53.6979 101.8 51.9526C101.769 50.1712 100.863 48.5728 99.0131 46.8972L98.9819 46.8689L98.9463 46.8462C98.2783 46.4204 97.5012 46.2092 96.7182 46.233L96.3964 33.1827C96.9605 33.1348 97.8534 33.0953 99.0237 33.0648C100.552 33.025 102.52 33.001 104.773 32.9892C109.279 32.9657 114.916 32.9909 120.429 33.0351C125.942 33.0793 131.331 33.1424 135.342 33.1945C137.347 33.2205 139.008 33.2438 140.167 33.2605Z" fill="#FFCC90" stroke="black"/>
<path d="M97.0667 73.9244C96.6778 74.5752 96.1884 75.2267 95.7441 75.8067C95.2192 75.5324 94.7166 75.2171 94.2411 74.8636L94.241 74.8633L94.0919 74.7489C93.5782 74.355 93.0999 73.9175 92.6622 73.4414C93.1063 72.8618 93.6087 72.2205 94.1362 71.6771C94.7818 71.0119 95.3688 70.598 95.8438 70.5297C96.0494 70.5123 96.2565 70.5362 96.4528 70.6C96.6525 70.6649 96.8369 70.7697 96.9948 70.9082L97.1363 71.0323H97.1682C97.301 71.1369 97.4161 71.2628 97.5086 71.4051C97.6212 71.5784 97.698 71.7724 97.7345 71.9758C97.7914 72.4531 97.5427 73.1278 97.0667 73.9244ZM96.8673 70.7146C96.8675 70.7151 96.8677 70.7156 96.8679 70.716L96.8673 70.7146Z" fill="#FFE0BC" stroke="black"/>
<mask id="path-27-inside-2_216_1196" fill="white">
<path d="M99.7159 62.565C99.641 62.6842 99.7763 62.9055 100.025 63.068L102.872 64.9105C103.118 65.0696 103.383 65.102 103.455 64.9871C103.534 64.8688 103.394 64.6467 103.146 64.4841L100.304 62.6416C100.057 62.4799 99.7934 62.4476 99.7159 62.5659V62.565Z"/>
</mask>
<path d="M99.7159 62.565C99.641 62.6842 99.7763 62.9055 100.025 63.068L102.872 64.9105C103.118 65.0696 103.383 65.102 103.455 64.9871C103.534 64.8688 103.394 64.6467 103.146 64.4841L100.304 62.6416C100.057 62.4799 99.7934 62.4476 99.7159 62.5659V62.565Z" fill="#FFE0BC"/>
<path d="M99.7159 62.565H100.716V59.095L98.8693 62.0329L99.7159 62.565ZM100.025 63.068L99.4774 63.9049L99.4816 63.9076L100.025 63.068ZM102.872 64.9105L103.416 64.0709L103.416 64.0709L102.872 64.9105ZM103.455 64.9871L102.624 64.431L102.616 64.4425L102.609 64.4543L103.455 64.9871ZM103.146 64.4841L103.693 63.6472L103.69 63.6451L103.146 64.4841ZM100.304 62.6416L99.7559 63.4781L99.7599 63.4807L100.304 62.6416ZM99.7159 62.5659H98.7159V65.9191L100.553 63.1136L99.7159 62.5659ZM98.8693 62.0329C98.5165 62.594 98.785 63.141 98.8967 63.3231C99.0466 63.5674 99.2602 63.7628 99.4774 63.9049L100.572 62.2311C100.541 62.2107 100.563 62.2141 100.602 62.2774C100.621 62.309 100.667 62.3922 100.686 62.5219C100.707 62.6602 100.7 62.8792 100.563 63.0972L98.8693 62.0329ZM99.4816 63.9076L102.329 65.75L103.416 64.0709L100.568 62.2284L99.4816 63.9076ZM102.329 65.75C102.552 65.8945 102.82 66.0072 103.101 66.0434C103.287 66.0672 103.932 66.1062 104.302 65.5199L102.609 64.4543C102.759 64.2166 102.972 64.1175 103.104 64.0815C103.23 64.0471 103.323 64.0553 103.356 64.0597C103.426 64.0686 103.438 64.0855 103.416 64.0709L102.329 65.75ZM104.286 65.5431C104.67 64.97 104.382 64.4009 104.273 64.2247C104.122 63.9814 103.907 63.7875 103.693 63.6472L102.598 65.321C102.632 65.3433 102.612 65.3417 102.574 65.2797C102.555 65.2489 102.506 65.163 102.486 65.0278C102.464 64.8815 102.476 64.6528 102.624 64.431L104.286 65.5431ZM103.69 63.6451L100.848 61.8026L99.7599 63.4807L102.602 65.3232L103.69 63.6451ZM100.852 61.8052C100.629 61.6588 100.359 61.543 100.072 61.5067C99.8647 61.4804 99.2464 61.4574 98.8793 62.0182L100.553 63.1136C100.409 63.3337 100.208 63.4307 100.076 63.4679C99.9507 63.503 99.8571 63.4954 99.8206 63.4908C99.7472 63.4815 99.7325 63.4627 99.756 63.4781L100.852 61.8052ZM100.716 62.5659V62.565H98.7159V62.5659H100.716Z" fill="black" mask="url(#path-27-inside-2_216_1196)"/>
<mask id="path-29-inside-3_216_1196" fill="white">
<path d="M99.1432 63.4535C99.0649 63.5735 99.2044 63.7982 99.447 63.9573L102.292 65.7998C102.54 65.9589 102.803 65.9938 102.879 65.8781C102.955 65.7581 102.816 65.5326 102.569 65.3717L99.7253 63.5284C99.4785 63.3701 99.2146 63.3361 99.1432 63.4535Z"/>
</mask>
<path d="M99.1432 63.4535C99.0649 63.5735 99.2044 63.7982 99.447 63.9573L102.292 65.7998C102.54 65.9589 102.803 65.9938 102.879 65.8781C102.955 65.7581 102.816 65.5326 102.569 65.3717L99.7253 63.5284C99.4785 63.3701 99.2146 63.3361 99.1432 63.4535Z" fill="#FFE0BC"/>
<path d="M99.447 63.9573L98.8984 64.7934L98.9034 64.7967L99.447 63.9573ZM102.292 65.7998L101.748 66.6391L101.753 66.6419L102.292 65.7998ZM102.879 65.8781L103.713 66.43L103.719 66.421L103.725 66.4119L102.879 65.8781ZM102.569 65.3717L103.115 64.5339L103.113 64.5326L102.569 65.3717ZM99.7253 63.5284L100.269 62.6892L100.265 62.6867L99.7253 63.5284ZM98.3057 62.9071C97.9364 63.473 98.2118 64.032 98.3206 64.2107C98.4693 64.4551 98.6821 64.6515 98.8984 64.7934L99.9956 63.1212C99.9694 63.104 99.991 63.1085 100.029 63.1708C100.048 63.2019 100.094 63.2857 100.113 63.4169C100.134 63.5574 100.124 63.7806 99.9807 64L98.3057 62.9071ZM98.9034 64.7967L101.748 66.6391L102.836 64.9604L99.9906 63.118L98.9034 64.7967ZM101.753 66.6419C101.972 66.7824 102.237 66.8958 102.518 66.9332C102.714 66.9594 103.34 66.9941 103.713 66.43L102.045 65.3262C102.194 65.102 102.399 65.0066 102.531 64.9712C102.656 64.9377 102.748 64.9463 102.782 64.9508C102.851 64.9599 102.86 64.9763 102.831 64.9577L101.753 66.6419ZM103.725 66.4119C104.081 65.8468 103.807 65.2953 103.698 65.1177C103.548 64.8737 103.335 64.6769 103.115 64.5339L102.023 66.2095C102.051 66.2274 102.03 66.2238 101.993 66.1627C101.974 66.1323 101.929 66.0506 101.909 65.9224C101.888 65.7864 101.894 65.5652 102.034 65.3443L103.725 66.4119ZM103.113 64.5326L100.269 62.6892L99.1814 64.3676L102.026 66.2109L103.113 64.5326ZM100.265 62.6867C100.045 62.5452 99.7779 62.432 99.4962 62.3957C99.3088 62.3716 98.6541 62.3337 98.289 62.9336L99.9974 63.9735C99.8512 64.2136 99.6372 64.3176 99.4999 64.3562C99.3708 64.3924 99.275 64.3838 99.2408 64.3794C99.1705 64.3703 99.1592 64.3533 99.1854 64.3701L100.265 62.6867Z" fill="black" mask="url(#path-29-inside-3_216_1196)"/>
<path d="M131.435 61.9374V29.2358H141.493V61.9374H131.435Z" fill="#F2EBEC" stroke="black"/>
<path d="M91.9836 124.761L91.9836 124.761C91.651 125.309 91.5497 125.967 91.7021 126.59C91.8544 127.213 92.2477 127.749 92.7956 128.082C93.3435 128.414 94.0007 128.514 94.6228 128.362C95.2448 128.209 95.7809 127.816 96.1131 127.268C96.1131 127.268 96.1131 127.268 96.1131 127.268L101.861 117.79C101.861 117.79 101.861 117.79 101.861 117.79C102.192 117.242 102.292 116.586 102.14 115.965C101.988 115.344 101.595 114.808 101.049 114.476L91.9836 124.761ZM91.9836 124.761L97.7306 115.29L97.7307 115.29M91.9836 124.761L97.7307 115.29M97.7307 115.29C97.8952 115.019 98.1114 114.783 98.3672 114.595M97.7307 115.29L98.3672 114.595M98.3672 114.595C98.6229 114.407 98.9132 114.272 99.2213 114.196M98.3672 114.595L99.2213 114.196M99.2213 114.196C99.5294 114.12 99.8494 114.106 100.163 114.154M99.2213 114.196L100.163 114.154M100.163 114.154C100.476 114.202 100.777 114.312 101.048 114.476L100.163 114.154Z" fill="#F6B968" stroke="black"/>
<path d="M84.4102 132.865L84.4098 132.865C83.7395 133.149 82.0643 133.517 80.4632 133.625C79.6669 133.679 78.9268 133.665 78.363 133.559C78.0812 133.505 77.8667 133.433 77.7172 133.351C77.5695 133.269 77.5133 133.194 77.4914 133.142L77.4566 133.059L77.3953 132.994L76.1652 131.684C75.8382 130.913 75.2139 129.426 74.8161 128.223C74.6954 127.858 74.6027 127.54 74.5434 127.284C78.0695 129.43 82.5963 128.622 86.1662 127.343C88.0437 126.67 89.7037 125.85 90.8931 125.2C91.4884 124.874 91.9673 124.59 92.2984 124.387C92.464 124.285 92.5926 124.204 92.6805 124.147C92.7206 124.122 92.7523 124.101 92.775 124.086C93.0555 123.974 93.3547 123.915 93.6572 123.913C93.9742 123.91 94.2886 123.971 94.5824 124.09C94.8761 124.209 95.1435 124.386 95.3692 124.608C95.5949 124.831 95.7745 125.096 95.8978 125.388L95.8979 125.388C96.1469 125.978 96.1516 126.642 95.911 127.234C95.6704 127.827 95.2042 128.3 94.6149 128.549L94.6148 128.549L84.4102 132.865Z" fill="#F6B968" stroke="black"/>
<path d="M85.4855 131.089L97.8697 123.472L97.9728 123.408L98.0355 123.305L97.6077 123.046C98.0355 123.305 98.0355 123.305 98.0355 123.304L98.0357 123.304L98.0364 123.303L98.0391 123.299L98.0498 123.281L98.0915 123.212L98.2496 122.951C98.3858 122.726 98.58 122.405 98.8124 122.022C99.1065 121.537 99.4616 120.952 99.8373 120.334L98.5405 123.619C98.4016 123.907 98.2029 124.161 97.9579 124.366L97.9218 124.396L97.892 124.432C97.7046 124.66 97.4751 124.85 97.2159 124.991L97.2159 124.991L97.2134 124.993L87.6293 130.294C86.9333 130.609 86.2169 130.875 85.4855 131.089Z" fill="#EEAA59" stroke="black"/>
<path d="M98.8621 124.215L98.8621 124.214L103.446 114.128C103.446 114.128 103.447 114.128 103.447 114.127C103.712 113.545 104.198 113.091 104.797 112.867C105.397 112.642 106.061 112.664 106.644 112.929C107.227 113.194 107.681 113.681 107.905 114.281C108.13 114.881 108.108 115.545 107.842 116.129L107.842 116.129L103.26 126.216C102.994 126.799 102.508 127.253 101.908 127.478C101.309 127.702 100.644 127.68 100.061 127.414C99.4776 127.149 99.0236 126.663 98.7988 126.063C98.574 125.463 98.5968 124.798 98.8621 124.215Z" fill="#F6B968" stroke="black"/>
<path d="M92.2989 133.159L92.2987 133.159C91.6663 133.52 90.0457 134.084 88.4686 134.381C87.6843 134.529 86.9479 134.603 86.376 134.564C86.09 134.545 85.8688 134.499 85.7111 134.435C85.5552 134.372 85.4915 134.304 85.4643 134.256L85.4199 134.178L85.351 134.12L83.9765 132.966C83.8495 132.721 83.8418 132.576 83.8557 132.494C83.8704 132.406 83.9246 132.3 84.0868 132.161C84.2542 132.017 84.4924 131.874 84.8059 131.706C84.9004 131.656 85.0029 131.602 85.1104 131.546C85.3387 131.427 85.5892 131.297 85.8312 131.158C85.8319 131.157 85.8325 131.157 85.8332 131.157L99.5238 123.473L99.5239 123.473L99.5274 123.471C99.8028 123.314 100.107 123.212 100.421 123.172C100.736 123.132 101.056 123.155 101.362 123.238C101.668 123.322 101.954 123.465 102.205 123.659C102.456 123.854 102.665 124.096 102.822 124.372L102.823 124.372C102.98 124.648 103.082 124.951 103.122 125.266C103.162 125.581 103.139 125.9 103.056 126.206C102.972 126.512 102.829 126.799 102.635 127.05C102.44 127.3 102.199 127.51 101.923 127.668L92.2989 133.159Z" fill="#F6B968" stroke="black"/>
<path d="M102.733 124.684L102.701 124.711L102.674 124.743C102.483 124.972 102.252 125.163 101.992 125.307L92.4069 130.604C91.7081 130.922 90.9887 131.189 90.2543 131.404L102.646 123.782L102.75 123.718L102.813 123.614L105.977 118.346L103.328 123.91C103.328 123.911 103.328 123.911 103.328 123.911C103.185 124.207 102.982 124.47 102.733 124.684Z" fill="#EEAA59" stroke="black"/>
<path d="M108.493 114.184L108.493 114.184C108.624 113.895 108.811 113.635 109.043 113.418C109.275 113.202 109.547 113.033 109.844 112.921C110.141 112.81 110.457 112.759 110.774 112.77C111.091 112.78 111.403 112.854 111.692 112.985L111.692 112.986C112.275 113.251 112.729 113.737 112.954 114.337C113.179 114.937 113.156 115.602 112.891 116.185L112.891 116.186L108.306 126.27C108.04 126.853 107.554 127.306 106.954 127.531C106.354 127.756 105.69 127.733 105.106 127.469C104.524 127.203 104.07 126.717 103.845 126.118C103.621 125.518 103.643 124.854 103.908 124.27L108.493 114.184Z" fill="#F6B968" stroke="black"/>
<path d="M107.555 123.319C107.857 123.554 108.11 123.846 108.299 124.179L104.325 123.091C104.657 122.901 105.024 122.779 105.403 122.731C105.783 122.683 106.168 122.71 106.538 122.811C106.907 122.912 107.252 123.085 107.555 123.319ZM90.5098 134.31L90.4656 134.232L90.397 134.174L89.0221 133.018C88.8949 132.773 88.8872 132.628 88.901 132.546C88.9158 132.459 88.97 132.353 89.1321 132.213C89.2994 132.069 89.5376 131.927 89.8509 131.76C89.9476 131.708 90.0531 131.653 90.1637 131.596C90.3899 131.479 90.6377 131.35 90.8762 131.214C90.8767 131.214 90.8771 131.214 90.8775 131.214L104.57 123.527L104.57 123.527L104.573 123.525C104.848 123.368 105.152 123.266 105.466 123.227C105.781 123.187 106.1 123.209 106.406 123.293C106.711 123.377 106.998 123.52 107.248 123.714C107.498 123.909 107.708 124.15 107.865 124.426L107.865 124.427C108.023 124.702 108.124 125.006 108.165 125.32C108.205 125.635 108.182 125.954 108.099 126.26L108.581 126.392L108.099 126.26C108.016 126.566 107.873 126.853 107.678 127.103C107.484 127.354 107.242 127.564 106.967 127.721L106.967 127.721L97.3471 133.214C96.7142 133.575 95.0934 134.139 93.5163 134.436C92.7319 134.583 91.9954 134.658 91.4232 134.619C91.1371 134.6 90.9157 134.553 90.7577 134.489C90.6016 134.426 90.5374 134.358 90.5098 134.31Z" fill="#F6B968" stroke="black"/>
<path d="M100.918 133.157L100.911 133.148L100.904 133.14C100.611 132.817 100.388 132.438 100.246 132.026C100.104 131.614 100.048 131.178 100.08 130.744C100.112 130.309 100.231 129.886 100.431 129.499C100.63 129.115 100.905 128.775 101.238 128.499L113.993 118.713C114.911 118.106 115.961 117.615 116.905 117.464C117.845 117.314 118.598 117.507 119.093 118.151L119.094 118.152C119.456 118.62 119.61 119.074 119.627 119.518C119.645 119.969 119.523 120.445 119.277 120.948C118.779 121.967 117.817 123.005 116.739 124.019L105.703 134.108C104.443 135.138 102.298 134.828 100.918 133.157Z" fill="#FFCC90" stroke="black"/>
<path d="M101.171 128.542L101.15 128.553C100.892 128.682 100.431 128.828 99.8635 128.98C99.2809 129.135 98.5437 129.306 97.705 129.479C96.0276 129.824 93.9297 130.178 91.826 130.422C89.7264 130.666 87.6018 130.803 85.8785 130.707C85.0181 130.659 84.2362 130.552 83.5993 130.361C82.9769 130.174 82.4113 129.883 82.0911 129.406C82.091 129.406 82.0909 129.406 82.0909 129.406L82.5062 129.127C80.1599 125.638 81.0458 123.483 84.0908 120.523L101.171 128.542ZM101.171 128.542L101.191 128.53C101.21 128.518 101.228 128.506 101.246 128.494L105.28 134.386C104.146 135.077 102.407 135.82 100.345 136.558C98.0248 137.388 95.3405 138.198 92.7438 138.913C90.1482 139.628 87.6461 140.247 85.6929 140.697C83.7223 141.151 82.3498 141.423 81.985 141.458L81.9855 141.458C81.9855 141.458 81.9735 141.458 81.9448 141.457C81.9147 141.456 81.8744 141.453 81.8227 141.448C81.7191 141.437 81.5832 141.418 81.4142 141.391C81.0768 141.336 80.6273 141.249 80.0787 141.135C78.9828 140.906 77.5107 140.569 75.7898 140.158C72.3489 139.337 67.9271 138.226 63.559 137.11C59.1915 135.993 54.8798 134.871 51.6598 134.028C50.0498 133.607 48.7129 133.255 47.7785 133.009C47.3583 132.898 47.0196 132.809 46.774 132.744L50.4486 115.742L64.3428 119.019L64.4916 119.055L64.6346 119L64.4576 118.533C64.6346 119 64.6346 119 64.6347 119L64.635 119L64.6361 119L64.6407 118.998L64.6586 118.991L64.7292 118.965L65.0025 118.861C65.2408 118.77 65.5883 118.638 66.0248 118.471C66.8978 118.137 68.1273 117.664 69.5534 117.111C72.4048 116.003 76.0446 114.57 79.1921 113.266L79.1923 113.266C80.4252 112.755 81.7828 111.792 83.1416 110.707C83.9731 110.044 84.8312 109.313 85.6746 108.594C86.2065 108.141 86.7326 107.693 87.2425 107.269C88.5827 106.157 89.8248 105.205 90.8867 104.66C91.9831 104.098 92.6732 104.074 93.104 104.411C93.1041 104.411 93.1042 104.411 93.1043 104.411L93.4121 104.017L101.171 128.542Z" fill="#FFCC90" stroke="black"/>
<path d="M52.4814 144.586L43.4346 142.517L50.1986 112.946L59.2454 115.015L52.4814 144.586Z" fill="#F2EBEC" stroke="black"/>
<path d="M35.0935 142.807L35.0938 142.807C35.2911 143.166 35.3414 143.587 35.2337 143.983C35.1246 144.382 34.8626 144.723 34.5042 144.932C34.1458 145.14 33.7199 145.198 33.3185 145.095C32.9182 144.992 32.5745 144.736 32.3611 144.382C32.2308 144.157 32.1584 143.903 32.1502 143.643C32.142 143.382 32.1989 143.122 32.3158 142.889C32.4326 142.655 32.6059 142.454 32.8198 142.304L32.5325 141.894L32.8198 142.304C33.0337 142.154 33.2816 142.059 33.5412 142.028L33.887 141.988L33.9688 141.649L34.4216 139.777L34.4216 139.777L34.4226 139.773C34.4292 139.744 34.4414 139.717 34.4584 139.693L34.0524 139.402L34.4584 139.693C34.4755 139.67 34.497 139.65 34.5219 139.634C34.5467 139.619 34.5744 139.609 34.6032 139.604C34.6321 139.6 34.6615 139.601 34.6899 139.608C34.7183 139.615 34.745 139.627 34.7685 139.644L35.0646 139.242L34.7685 139.644C34.792 139.662 34.8119 139.683 34.827 139.709C34.842 139.734 34.852 139.761 34.8562 139.79C34.8605 139.819 34.859 139.849 34.8518 139.877L34.8517 139.877L34.8502 139.883L34.3975 141.763L34.3154 142.104L34.6077 142.297C34.8061 142.428 34.9722 142.603 35.0935 142.807Z" fill="#A83A48" stroke="black"/>
<path d="M28.5295 139.995L28.9888 140.05L28.7516 140.405C29.0397 140.597 29.2571 140.878 29.3708 141.206C29.4846 141.533 29.4884 141.889 29.3818 142.218C29.2752 142.548 29.064 142.834 28.7801 143.033C28.4963 143.232 28.1554 143.333 27.809 143.32C27.4627 143.308 27.1299 143.183 26.8611 142.964C26.5923 142.745 26.4022 142.445 26.3196 142.108C26.237 141.772 26.2664 141.417 26.4034 141.099C26.5404 140.781 26.7774 140.516 27.0786 140.344L27.0786 140.344L27.0846 140.341C27.2683 140.233 27.4728 140.165 27.6846 140.142L28.0338 140.104L28.1164 139.763L28.5681 137.895C28.583 137.839 28.6188 137.792 28.6681 137.762C28.718 137.732 28.7778 137.723 28.8344 137.737C28.8911 137.751 28.94 137.786 28.9707 137.836C29.0009 137.885 29.011 137.943 28.9988 138L28.7135 139.176L28.5295 139.053V139.989V139.995Z" fill="#A83A48" stroke="black"/>
<path d="M22.6126 137.942L22.5291 138.286L22.826 138.479C23.0227 138.607 23.187 138.779 23.3059 138.981C23.4622 139.25 23.5352 139.56 23.5156 139.871C23.496 140.183 23.3845 140.481 23.1953 140.729C23.006 140.977 22.7474 141.163 22.4522 141.264C22.157 141.365 21.8385 141.377 21.5369 141.297C21.2353 141.217 20.9643 141.049 20.758 140.815C20.5517 140.581 20.4195 140.291 20.378 139.982C20.3365 139.672 20.3877 139.358 20.5251 139.078C20.6624 138.798 20.8797 138.564 21.1496 138.408L21.1496 138.408C21.3355 138.3 21.542 138.232 21.7557 138.209L22.1043 138.17L22.187 137.83L22.6415 135.957L22.6415 135.957L22.6422 135.954C22.6488 135.926 22.661 135.899 22.678 135.876C22.695 135.852 22.7165 135.833 22.7413 135.817L22.4799 135.391L22.7413 135.817C22.766 135.802 22.7935 135.792 22.8221 135.788C22.8507 135.783 22.88 135.784 22.9082 135.791C22.9364 135.798 22.963 135.81 22.9864 135.828L23.2822 135.424L22.9864 135.828C23.0098 135.845 23.0295 135.866 23.0445 135.891C23.0595 135.916 23.0695 135.944 23.0738 135.972L23.5611 135.899L23.0738 135.972C23.0781 136.001 23.0767 136.03 23.0696 136.058L23.0696 136.058L23.0688 136.062L22.6126 137.942Z" fill="#A83A48" stroke="black"/>
<path d="M29.2808 140.342L28.978 140.74C28.8157 140.617 28.6306 140.526 28.4333 140.474C28.236 140.422 28.0304 140.41 27.8282 140.437C27.6261 140.465 27.4314 140.532 27.2551 140.634L29.2808 140.342ZM29.2808 140.342L28.978 140.74C29.1403 140.864 29.2767 141.018 29.3794 141.194L29.2808 140.342ZM26.642 141.295C26.7765 141.019 26.9898 140.789 27.255 140.634L29.3796 141.195C29.5339 141.46 29.6062 141.765 29.5873 142.071C29.5683 142.378 29.4589 142.672 29.2729 142.916C29.087 143.16 28.8327 143.344 28.5424 143.444C28.252 143.544 27.9386 143.555 27.6417 143.477C27.3448 143.399 27.0778 143.234 26.8744 143.004C26.671 142.774 26.5404 142.489 26.499 142.185C26.4577 141.88 26.5074 141.571 26.642 141.295Z" fill="#702730" stroke="black"/>
<path d="M20.7488 139.416C20.8837 139.14 21.0974 138.911 21.3626 138.757C21.5392 138.654 21.7341 138.588 21.9365 138.561C22.1388 138.534 22.3445 138.547 22.5419 138.599C22.7392 138.651 22.9243 138.742 23.0865 138.866C23.2486 138.99 23.3848 139.145 23.4872 139.321C23.6409 139.587 23.7124 139.892 23.6927 140.198C23.6731 140.505 23.563 140.798 23.3765 141.042C23.19 141.286 22.9355 141.469 22.645 141.568C22.3545 141.667 22.0411 141.678 21.7445 141.6C21.4478 141.521 21.1812 141.356 20.9782 141.125C20.7753 140.895 20.6452 140.61 20.6044 140.306C20.5635 140.001 20.6138 139.692 20.7488 139.416Z" fill="#702730" stroke="black"/>
<path d="M33.0957 142.498L33.0963 142.497C33.2727 142.395 33.4676 142.328 33.67 142.3C33.8723 142.273 34.078 142.286 34.2753 142.339C34.4727 142.391 34.6577 142.482 34.8198 142.606C34.9819 142.73 35.1179 142.885 35.22 143.062L35.2203 143.062C35.3743 143.328 35.446 143.634 35.4264 143.94C35.4068 144.247 35.2968 144.541 35.1102 144.785C34.9236 145.029 34.6689 145.212 34.3782 145.311C34.0875 145.411 33.7739 145.421 33.477 145.342C33.1801 145.264 32.9133 145.098 32.7103 144.868C32.5072 144.637 32.3771 144.352 32.3363 144.047C32.2955 143.743 32.3458 143.433 32.481 143.157C32.6162 142.882 32.8301 142.652 33.0957 142.498Z" fill="#702730" stroke="black"/>
<path d="M92.1325 106.65L92.1634 106.679L92.172 106.685C92.4998 106.997 92.8024 107.335 93.0771 107.695C92.7059 108.087 92.2949 108.508 91.8747 108.861C91.3271 109.32 90.8688 109.57 90.5394 109.587C90.396 109.583 90.2546 109.551 90.1234 109.493C90.0389 109.455 89.9597 109.407 89.8877 109.35V109.324L89.7238 109.19L89.7134 109.178L89.6996 109.17C89.5881 109.077 89.4964 108.963 89.43 108.834C89.3644 108.707 89.3249 108.568 89.3137 108.425C89.3107 108.094 89.533 107.622 89.9592 107.05C90.2861 106.611 90.6823 106.177 91.0521 105.785C91.4352 106.043 91.7966 106.332 92.1325 106.65ZM89.6492 109.139C89.6453 109.137 89.6471 109.138 89.6521 109.141L89.6492 109.139ZM89.8877 109.557C89.8877 109.563 89.8877 109.565 89.8877 109.561V109.557Z" fill="#FFE0BC" stroke="black"/>
<path d="M115.785 123.521L115.671 123.426C115.63 123.392 115.6 123.347 115.584 123.296C115.567 123.245 115.566 123.191 115.579 123.139L115.583 123.126L115.585 123.114C115.611 122.991 115.69 122.809 115.84 122.569C115.985 122.336 116.179 122.079 116.402 121.81C116.767 121.371 117.189 120.924 117.572 120.525C117.772 120.641 117.96 120.777 118.132 120.934L118.174 120.973C118.323 121.115 118.457 121.271 118.575 121.439C118.194 121.835 117.769 122.271 117.348 122.65C117.088 122.885 116.837 123.09 116.609 123.247C116.374 123.408 116.191 123.498 116.063 123.531L116.048 123.535L116.034 123.54C115.977 123.558 115.916 123.561 115.858 123.548C115.833 123.542 115.808 123.533 115.785 123.521ZM115.418 123.323C115.405 123.321 115.39 123.32 115.372 123.319C115.384 123.319 115.394 123.32 115.4 123.321C115.407 123.321 115.413 123.322 115.418 123.323ZM118.468 120.578L118.141 120.933C118.139 120.932 118.137 120.93 118.136 120.929C118.051 120.851 118.013 120.761 117.997 120.707C117.979 120.646 117.976 120.595 117.976 120.57H118.463H118.468H118.476L118.468 120.578ZM115.405 123.316C115.407 123.316 115.408 123.316 115.41 123.316C115.407 123.316 115.404 123.316 115.402 123.315C115.403 123.316 115.404 123.316 115.405 123.316Z" fill="#FFE0BC" stroke="black"/>
<mask id="path-51-inside-4_216_1196" fill="white">
<path d="M83.1122 112.697C83.2117 112.611 83.4381 112.702 83.6228 112.904L85.7367 115.244C85.9197 115.446 85.9869 115.682 85.8916 115.77C85.7955 115.856 85.5674 115.765 85.381 115.56L83.2679 113.224C83.0832 113.023 83.0126 112.784 83.1105 112.697L83.1122 112.697Z"/>
</mask>
<path d="M83.1122 112.697C83.2117 112.611 83.4381 112.702 83.6228 112.904L85.7367 115.244C85.9197 115.446 85.9869 115.682 85.8916 115.77C85.7955 115.856 85.5674 115.765 85.381 115.56L83.2679 113.224C83.0832 113.023 83.0126 112.784 83.1105 112.697L83.1122 112.697Z" fill="#FFE0BC"/>
<path d="M83.1122 112.697L83.5621 113.59L83.67 113.535L83.7619 113.457L83.1122 112.697ZM83.6228 112.904L84.3648 112.234L84.3617 112.23L83.6228 112.904ZM85.7367 115.244L86.4788 114.573L86.4787 114.573L85.7367 115.244ZM85.8916 115.77L86.5543 116.519L86.5633 116.511L86.5721 116.503L85.8916 115.77ZM85.381 115.56L84.6394 116.231L84.6409 116.233L85.381 115.56ZM83.2679 113.224L84.0096 112.553L84.004 112.547L83.2679 113.224ZM83.1105 112.697L82.6605 111.804L82.5443 111.863L82.4469 111.949L83.1105 112.697ZM83.7619 113.457C83.5666 113.624 83.3531 113.663 83.2171 113.665C83.0877 113.666 82.9982 113.635 82.9609 113.62C82.8863 113.589 82.87 113.563 82.8838 113.578L84.3617 112.23C84.1909 112.043 83.969 111.87 83.7103 111.765C83.5196 111.688 82.9533 111.517 82.4625 111.936L83.7619 113.457ZM82.8808 113.575L84.9948 115.914L86.4787 114.573L84.3648 112.234L82.8808 113.575ZM84.9947 115.914C85.0064 115.927 84.981 115.907 84.9584 115.829C84.9472 115.791 84.925 115.698 84.9396 115.567C84.955 115.431 85.018 115.217 85.2112 115.038L86.5721 116.503C87.054 116.056 86.9347 115.463 86.8786 115.27C86.8005 115.002 86.6501 114.763 86.4788 114.573L84.9947 115.914ZM85.2289 115.022C85.4297 114.844 85.6521 114.803 85.7894 114.802C85.9204 114.801 86.0106 114.833 86.0469 114.848C86.1203 114.878 86.1355 114.904 86.1211 114.888L84.6409 116.233C84.8129 116.422 85.0353 116.595 85.2934 116.7C85.4745 116.774 86.0578 116.959 86.5543 116.519L85.2289 115.022ZM86.1226 114.889L84.0095 112.553L82.5263 113.895L84.6394 116.231L86.1226 114.889ZM84.004 112.547C83.9934 112.536 84.0186 112.555 84.0417 112.633C84.053 112.671 84.0766 112.766 84.0615 112.9C84.0456 113.042 83.9788 113.264 83.774 113.445L82.4469 111.949C81.9375 112.401 82.0695 113.018 82.1248 113.203C82.2049 113.472 82.3578 113.712 82.5318 113.901L84.004 112.547ZM83.5604 113.59L83.5621 113.59L82.6622 111.803L82.6605 111.804L83.5604 113.59Z" fill="black" mask="url(#path-51-inside-4_216_1196)"/>
<path d="M84.1647 112.415L84.169 112.42C84.1686 112.421 84.1683 112.421 84.1679 112.421L84.1643 112.416L84.1647 112.415ZM84.1643 112.415L84.164 112.415L84.1637 112.415L84.1623 112.413L84.1622 112.412L84.1623 112.413L84.1639 112.415L84.1643 112.415Z" fill="#FFE0BC" stroke="black"/>
<mask id="path-54-inside-5_216_1196" fill="white">
<path d="M103.163 132.13C103.273 132.062 103.454 132.144 103.565 132.313L104.847 134.282C104.956 134.452 104.956 134.649 104.847 134.717C104.736 134.79 104.556 134.703 104.445 134.534L103.163 132.568C103.051 132.398 103.054 132.201 103.163 132.13V132.13Z"/>
</mask>
<path d="M103.163 132.13C103.273 132.062 103.454 132.144 103.565 132.313L104.847 134.282C104.956 134.452 104.956 134.649 104.847 134.717C104.736 134.79 104.556 134.703 104.445 134.534L103.163 132.568C103.051 132.398 103.054 132.201 103.163 132.13V132.13Z" fill="#FFE0BC"/>
<path d="M103.163 132.13L102.636 131.28L102.163 131.573V132.13H103.163ZM103.565 132.313L104.403 131.767L104.399 131.761L103.565 132.313ZM104.847 134.282L105.687 133.74L105.685 133.736L104.847 134.282ZM104.847 134.717L104.32 133.867L104.307 133.875L104.295 133.883L104.847 134.717ZM104.445 134.534L103.607 135.08L103.61 135.084L104.445 134.534ZM103.163 132.568L104.001 132.022L103.998 132.017L103.163 132.568ZM103.163 132.13L103.704 132.971L104.163 132.676V132.13H103.163ZM103.69 132.979C103.359 133.185 103.051 133.089 102.949 133.042C102.829 132.988 102.765 132.915 102.731 132.864L104.399 131.761C104.254 131.541 104.043 131.343 103.779 131.223C103.531 131.11 103.078 131.006 102.636 131.28L103.69 132.979ZM102.727 132.858L104.009 134.827L105.685 133.736L104.403 131.767L102.727 132.858ZM104.006 134.824C103.972 134.771 103.929 134.677 103.929 134.538C103.929 134.413 103.977 134.08 104.32 133.867L105.374 135.567C105.827 135.286 105.929 134.82 105.929 134.538C105.929 134.24 105.831 133.963 105.687 133.74L104.006 134.824ZM104.295 133.883C104.634 133.659 104.958 133.759 105.067 133.809C105.189 133.865 105.25 133.939 105.28 133.984L103.61 135.084C103.751 135.298 103.958 135.499 104.225 135.623C104.479 135.741 104.949 135.848 105.398 135.551L104.295 133.883ZM105.283 133.988L104.001 132.022L102.326 133.114L103.607 135.08L105.283 133.988ZM103.998 132.017C104.036 132.074 104.081 132.173 104.08 132.316C104.08 132.446 104.029 132.763 103.704 132.971L102.622 131.289C102.188 131.569 102.081 132.02 102.08 132.308C102.079 132.609 102.179 132.891 102.329 133.119L103.998 132.017ZM104.163 132.13V132.13H102.163V132.13H104.163Z" fill="black" mask="url(#path-54-inside-5_216_1196)"/>
<path d="M105.68 133.759C105.791 133.93 105.791 134.126 105.68 134.195M105.68 133.759L105.676 133.754L105.676 133.753L105.661 133.73C105.616 133.717 105.522 133.705 105.417 133.77C105.416 133.77 105.415 133.771 105.415 133.771C105.414 133.771 105.413 133.772 105.413 133.772C105.3 133.844 105.271 133.944 105.265 133.992L105.68 134.195M105.68 133.759L105.68 133.759L105.68 133.759ZM105.68 134.195C105.571 134.264 105.394 134.185 105.283 134.019C105.282 134.019 105.282 134.018 105.282 134.018C105.28 134.016 105.279 134.014 105.278 134.012L105.68 134.195Z" fill="#FFE0BC" stroke="black"/>
</svg>
