<svg width="94" height="86" viewBox="0 0 94 86" fill="none" xmlns="http://www.w3.org/2000/svg">
<path d="M22.5094 68.0834C19.5143 68.0834 16.9723 67.1254 14.8834 65.2093C12.7945 63.2932 11.7501 60.9665 11.7501 58.2292H3.91675V24.1876C3.91675 22.4631 4.5879 20.9868 5.93021 19.7588C7.27238 18.5308 8.88595 17.9167 10.7709 17.9167H67.1709L90.0834 38.8792V58.2292H82.2501C82.2501 60.9665 81.2018 63.2932 79.1052 65.2093C77.0087 67.1254 74.4628 68.0834 71.4677 68.0834C68.4726 68.0834 65.9306 67.1254 63.8417 65.2093C61.7529 63.2932 60.7084 60.9665 60.7084 58.2292H33.2917C33.2917 60.9765 32.2435 63.3056 30.1469 65.2168C28.0503 67.1279 25.5045 68.0834 22.5094 68.0834ZM58.7501 35.8334H77.7459L64.0376 23.2917H58.7501V35.8334ZM34.2709 35.8334H52.8751V23.2917H34.2709V35.8334ZM9.79175 35.8334H28.3959V23.2917H9.79175V35.8334ZM22.5071 63.6043C24.1483 63.6043 25.54 63.0859 26.6824 62.0492C27.8247 61.0125 28.3959 59.7434 28.3959 58.2419C28.3959 56.7404 27.8293 55.4671 26.6962 54.422C25.563 53.3768 24.1759 52.8542 22.5347 52.8542C20.8936 52.8542 19.5018 53.3726 18.3595 54.4093C17.2171 55.446 16.6459 56.7151 16.6459 58.2166C16.6459 59.7181 17.2125 60.9914 18.3456 62.0365C19.4788 63.0817 20.866 63.6043 22.5071 63.6043ZM71.4654 63.6043C73.1066 63.6043 74.4983 63.0859 75.6407 62.0492C76.7831 61.0125 77.3542 59.7434 77.3542 58.2419C77.3542 56.7404 76.7877 55.4671 75.6545 54.422C74.5214 53.3768 73.1342 52.8542 71.493 52.8542C69.8519 52.8542 68.4602 53.3726 67.3178 54.4093C66.1754 55.446 65.6042 56.7151 65.6042 58.2166C65.6042 59.7181 66.1708 60.9914 67.304 62.0365C68.4371 63.0817 69.8243 63.6043 71.4654 63.6043ZM9.79175 52.8542H13.4147C14.5244 51.3015 15.9115 50.1667 17.5761 49.4501C19.2407 48.7334 20.889 48.3751 22.5209 48.3751C24.1529 48.3751 25.8011 48.7334 27.4657 49.4501C29.1303 50.1667 30.5174 51.3015 31.6272 52.8542H62.373C63.4827 51.3015 64.8699 50.1667 66.5345 49.4501C68.199 48.7334 69.8473 48.3751 71.4792 48.3751C73.1112 48.3751 74.7595 48.7334 76.424 49.4501C78.0886 50.1667 79.4758 51.3015 80.5855 52.8542H84.2084V41.2084H9.79175V52.8542Z" fill="#FDFDFD"/>
</svg>
